<svg xmlns="http://www.w3.org/2000/svg" width="144.715" height="21.033" viewBox="0 0 144.715 21.033">
    <defs>
        <style>
            .cls-1{fill:#3d2829}.cls-1,.cls-2,.cls-5,.cls-6,.cls-7,.cls-8,.cls-9{fill-rule:evenodd}.cls-2{fill:#fefefe}.cls-3,.cls-7{fill:#573736}.cls-4,.cls-9{fill:#27ab27}.cls-5{fill:#fce3bf}.cls-6{fill:#edcb9c}.cls-8{fill:rgba(229,22,133,.2)}.cls-10,.cls-11{fill:#1baa56}.cls-10{font-size:14px;font-family:Titillium-Light,Titillium;font-weight:300}
        </style>
    </defs>
    <g id="Logo" transform="translate(0 .01)">
        <g id="_254887604448" transform="translate(0 -.01)">
            <path id="Path_1" d="M27.7 39.851a2.871 2.871 0 0 1-.439-5.121 5.478 5.478 0 0 1-.077-.915c0-3.236 2.843-5.88 6.423-6.051a3.829 3.829 0 0 1 3.386-1.884 3.888 3.888 0 0 1 3.188 1.568 7.657 7.657 0 0 1 1.066-.074q.3 0 .6.023a2.627 2.627 0 0 1 1.587-.534A2.745 2.745 0 0 1 46.1 29.2a5.764 5.764 0 0 1 1.924 3.847 3.279 3.279 0 0 1 .008 6.345 2.92 2.92 0 0 1 .173.994A2.768 2.768 0 0 1 45.49 43.2h-.132a3.107 3.107 0 0 1-2.769 1.751 3.186 3.186 0 0 1-3.12-3.248 3.307 3.307 0 0 1 .882-2.262 7.323 7.323 0 0 1-2.408-.71 7.09 7.09 0 0 1-1.7.8 3.33 3.33 0 0 1 .468 1.712 3.186 3.186 0 0 1-3.12 3.248 3.071 3.071 0 0 1-2.445-1.23 2.613 2.613 0 0 1-.824.133 2.768 2.768 0 0 1-2.711-2.822 2.935 2.935 0 0 1 .089-.718z" class="cls-1" data-name="Path 1" transform="translate(-25.678 -25.678)"/>
            <path id="Path_2" d="M26.8 39.325a2.9 2.9 0 0 1-.917-2.138 2.858 2.858 0 0 1 1.34-2.457 5.613 5.613 0 0 1-.075-.915 6.32 6.32 0 0 1 6.252-6.051 3.8 3.8 0 0 1 3.3-1.884 3.839 3.839 0 0 1 3.2 1.532 3.731 3.731 0 0 0-2.771-1.027 3.959 3.959 0 0 0-3.3 1.884 6.32 6.32 0 0 0-6.254 6.051 5.605 5.605 0 0 0 .075.915 2.858 2.858 0 0 0-1.34 2.457 2.943 2.943 0 0 0 .49 1.633zm13.25-11.711c.337-.048.517-.241.791-.241s.39.008.581.023a2.515 2.515 0 0 1 1.546-.534 2.59 2.59 0 0 1 2.152 1.188 2.507 2.507 0 0 0-3.268-.149q-.287-.023-.581-.023a7.261 7.261 0 0 0-1.038.074 2.468 2.468 0 0 0-.183-.338zm7.781 5.548a3.072 3.072 0 0 1 1.412 1.131 2.965 2.965 0 0 0-1.372-.747q-.014-.194-.04-.384zm-7.7 10.968a3.341 3.341 0 0 1-1.019-2.43 3.386 3.386 0 0 1 .563-1.883 7.1 7.1 0 0 0 .726.126 3.418 3.418 0 0 0-.269 4.185zm-11.653-1.423a2.9 2.9 0 0 1-.917-2.138 3.02 3.02 0 0 1 .034-.455 2.557 2.557 0 0 0 .482.242 3.011 3.011 0 0 0-.086.718 2.944 2.944 0 0 0 .487 1.634z" class="cls-2" data-name="Path 2" transform="translate(-25.678 -25.678)"/>
            <path id="Path_3" d="M1.783 14.286a2.945 2.945 0 0 1-1.25-1.043 3.121 3.121 0 0 1-.14-3.262 2.991 2.991 0 0 1 .965-1.039q-.025-.17-.039-.339a5.809 5.809 0 0 1-.02-.476 5.911 5.911 0 0 1 1.923-4.313A7.334 7.334 0 0 1 7.8 1.881 3.76 3.76 0 0 1 9.219.524a4.368 4.368 0 0 1 4-.1 3.864 3.864 0 0 1 1.373 1.117q.212-.027.427-.042.276-.019.548-.019c.092 0 .195 0 .308.007l.23.012a2.868 2.868 0 0 1 .748-.382 2.823 2.823 0 0 1 2.772.562A3.047 3.047 0 0 1 20.6 3.4a6.284 6.284 0 0 1 1.345 1.784 5.714 5.714 0 0 1 .582 2 3.315 3.315 0 0 1 1.738 1.175 3.55 3.55 0 0 1 0 4.314A3.322 3.322 0 0 1 22.6 13.83a3.108 3.108 0 0 1 .072.314 3.155 3.155 0 0 1 .047.54 3.075 3.075 0 0 1-.851 2.135 2.851 2.851 0 0 1-2.062.889H19.8a3.413 3.413 0 0 1-1.166 1.248 3.215 3.215 0 0 1-1.724.5 3.251 3.251 0 0 1-2.351-1.014 3.508 3.508 0 0 1-.971-2.436 3.553 3.553 0 0 1 .242-1.292 3.483 3.483 0 0 1 .455-.821 7.625 7.625 0 0 1-.912-.209 7.408 7.408 0 0 1-1.1-.42 7.219 7.219 0 0 1-.749.405q-.331.155-.675.277a3.514 3.514 0 0 1 .251.653 3.577 3.577 0 0 1 .127.944 3.508 3.508 0 0 1-.971 2.436A3.251 3.251 0 0 1 7.909 19a3.21 3.21 0 0 1-1.446-.344 3.35 3.35 0 0 1-1.072-.856 2.829 2.829 0 0 1-.752.1 2.85 2.85 0 0 1-2.062-.889 3.075 3.075 0 0 1-.851-2.135 3.166 3.166 0 0 1 .024-.387q.013-.1.033-.208zm-.917-1.27a2.531 2.531 0 0 0 1.219.958l.171.062-.044.176a2.731 2.731 0 0 0-.082.669 2.671 2.671 0 0 0 .737 1.856 2.444 2.444 0 0 0 2.158.734 2.413 2.413 0 0 0 .375-.092l.136-.045.087.114a2.959 2.959 0 0 0 1.02.851 2.8 2.8 0 0 0 1.265.3 2.85 2.85 0 0 0 2.061-.889 3.1 3.1 0 0 0 .857-2.157 3.172 3.172 0 0 0-.111-.838 3.1 3.1 0 0 0-.328-.771l-.131-.219.243-.077a7.012 7.012 0 0 0 .859-.334 6.807 6.807 0 0 0 .8-.441l.1-.062.1.051a6.993 6.993 0 0 0 1.134.444 7.249 7.249 0 0 0 1.208.246l.4.046-.271.291a3.068 3.068 0 0 0-.614.978 3.152 3.152 0 0 0-.213 1.147 3.1 3.1 0 0 0 .857 2.157 2.85 2.85 0 0 0 2.061.889 2.814 2.814 0 0 0 1.51-.438 3.012 3.012 0 0 0 1.079-1.2l.058-.116h.255a2.45 2.45 0 0 0 1.772-.764 2.671 2.671 0 0 0 .737-1.856 2.749 2.749 0 0 0-.04-.472 2.7 2.7 0 0 0-.12-.454l-.077-.213.222-.051a2.9 2.9 0 0 0 1.647-1.066 3.153 3.153 0 0 0 0-3.822A2.9 2.9 0 0 0 22.3 7.55l-.146-.033-.011-.149a5.3 5.3 0 0 0-.551-2 5.89 5.89 0 0 0-1.308-1.713l-.051-.047-.012-.069a2.645 2.645 0 0 0-.863-1.555 2.437 2.437 0 0 0-1.609-.609 2.412 2.412 0 0 0-.771.125 2.464 2.464 0 0 0-.7.368l-.061.046-.076-.006a6.532 6.532 0 0 0-.581-.023q-.269 0-.522.018t-.517.054l-.121.017-.071-.1a3.438 3.438 0 0 0-1.29-1.085 3.98 3.98 0 0 0-3.625.086A3.338 3.338 0 0 0 8.1 2.173l-.054.1-.113.005A6.942 6.942 0 0 0 3.5 4.107a5.511 5.511 0 0 0-1.8 4.02q0 .225.018.443c.013.15.031.3.055.439l.023.136-.119.07a2.579 2.579 0 0 0-.935.962 2.722 2.722 0 0 0 .121 2.838z" class="cls-3" data-name="Path 3" transform="translate(0 .01)"/>
            <path id="Path_4" d="M415.948 512.17a1.783 1.783 0 0 1 1.272.534 1.828 1.828 0 0 1 0 2.565 1.782 1.782 0 0 1-2.544 0 1.828 1.828 0 0 1 0-2.565 1.783 1.783 0 0 1 1.272-.534zm.913.887a1.282 1.282 0 0 0-1.827 0 1.328 1.328 0 0 0 0 1.86 1.282 1.282 0 0 0 1.827 0 1.328 1.328 0 0 0 0-1.86z" class="cls-4" data-name="Path 4" transform="translate(-410.919 -508.174)"/>
            <path id="Path_5" d="M814.093 1187.3a6.121 6.121 0 0 0 6.1-6.1v-2.528a3.036 3.036 0 0 0-3.027-3.027h-6.151a3.036 3.036 0 0 0-3.027 3.027v2.528a6.121 6.121 0 0 0 6.1 6.1z" class="cls-5" data-name="Path 5" transform="translate(-801.686 -1166.468)"/>
            <path id="Path_6" d="M1406.1 2110.772a1.641 1.641 0 0 1-.008.689 2.542 2.542 0 0 1-.339.841 1.579 1.579 0 0 1-.537.5 2.112 2.112 0 0 1-.773.286 7.215 7.215 0 0 1-1.035.071c-.258 0-.331 0-.412-.07a.568.568 0 0 1-.179-.432 1.144 1.144 0 0 1 .259-.79 1.765 1.765 0 0 1 .906-.383 6.069 6.069 0 0 0 1.05-.289 1.952 1.952 0 0 0 .548-.39.927.927 0 0 1 .174-.121c.047-.034.112-.1.177-.108s.131.046.17.2z" class="cls-6" data-name="Path 6" transform="translate(-1391.875 -2094.107)"/>
            <path id="Path_7" d="M816.73 1995.03a6.13 6.13 0 0 0 2.732 4.216l.015-.006c.07-.033.051-.119-.11-.286a8.93 8.93 0 0 1-.777-.8 7.248 7.248 0 0 1-.85-1.387 9.341 9.341 0 0 1-.434-1.186 1.414 1.414 0 0 0-.267-.574c-.081-.071-.176-.057-.307.028z" class="cls-2" data-name="Path 7" transform="translate(-810.358 -1979.393)"/>
            <path id="Path_8" d="M1173.46 1994.339a6.125 6.125 0 0 0 6.039-5.224.4.4 0 0 0-.159-.088c-.1-.013-.182.11-.492.648a14.846 14.846 0 0 1-1.43 2.168 5.45 5.45 0 0 1-1.813 1.373 5.976 5.976 0 0 1-1.719.554 4.716 4.716 0 0 1-1.711-.053 14.607 14.607 0 0 1-1.688-.492c-.355-.122-.355-.122-.226.184l.011.026a6.054 6.054 0 0 0 3.188.905z" class="cls-6" data-name="Path 8" transform="translate(-1161.053 -1973.508)"/>
            <path id="Path_9" d="M820.2 1178.89v-.213a3.036 3.036 0 0 0-3.027-3.027h-6.151a3.036 3.036 0 0 0-3.027 3.027v2.54a.418.418 0 0 0 .586-.214 2.043 2.043 0 0 0 .011-.916 4.072 4.072 0 0 1 .1-1.51 1.433 1.433 0 0 1 .757-.758c.279-.152.51-.268.667-.21a2.291 2.291 0 0 0 1.246.421 24.389 24.389 0 0 0 3.974.079c1.046-.084 1.214-.284 1.409-.421a.473.473 0 0 1 .62-.037c.2.173.394.594.831.836a4.518 4.518 0 0 0 1.557.352l.447.051z" class="cls-6" data-name="Path 9" transform="translate(-801.686 -1166.478)"/>
            <path id="Path_10" d="M788.405 1161.429a5.919 5.919 0 0 0 5.9-5.9V1153a2.816 2.816 0 0 0-.829-2 2.815 2.815 0 0 0-2-.829h-6.151a2.816 2.816 0 0 0-2 .829 2.816 2.816 0 0 0-.829 2v2.528a5.919 5.919 0 0 0 5.9 5.9zm4.453-1.448a6.3 6.3 0 0 1-10.758-4.453V1153a3.22 3.22 0 0 1 .949-2.28 3.22 3.22 0 0 1 2.28-.948h6.151a3.22 3.22 0 0 1 2.28.948 3.221 3.221 0 0 1 .949 2.28v2.528a6.286 6.286 0 0 1-1.852 4.453z" class="cls-3" data-name="Path 10" transform="translate(-775.998 -1140.8)"/>
            <path id="Path_11" d="M1349 1698.68a.562.562 0 1 1-.608.56.585.585 0 0 1 .608-.56z" class="cls-7" data-name="Path 11" transform="translate(-1337.87 -1685.428)"/>
            <path id="Path_12" d="M1665.478 1711.16a.562.562 0 1 1-.608.56.586.586 0 0 1 .608-.56z" class="cls-7" data-name="Path 12" transform="translate(-1651.881 -1697.81)"/>
            <path id="Path_13" d="M1713.6 1790.2a.183.183 0 1 1-.2.182.19.19 0 0 1 .2-.182z" class="cls-2" data-name="Path 13" transform="translate(-1700.033 -1776.234)"/>
            <path id="Path_14" d="M1652.636 1550.2l2.5-.343a.19.19 0 0 1 .213.162.19.19 0 0 1-.162.213l-2.5.343a.19.19 0 0 1-.213-.162.19.19 0 0 1 .162-.213z" class="cls-7" data-name="Path 14" transform="translate(-1639.581 -1537.762)"/>
            <path id="Path_15" d="M1140.617 1550.2l-2.5-.343a.19.19 0 0 0-.213.162.19.19 0 0 0 .162.213l2.5.343a.19.19 0 0 0 .213-.162.19.19 0 0 0-.162-.213z" class="cls-7" data-name="Path 15" transform="translate(-1129.028 -1537.762)"/>
            <path id="Path_16" d="M1887.726 1967.8a1.167 1.167 0 1 1-1.216 1.166 1.191 1.191 0 0 1 1.216-1.166z" class="cls-8" data-name="Path 16" transform="translate(-1871.792 -1952.448)"/>
            <path id="Path_17" d="M970.166 1967.8a1.167 1.167 0 1 1-1.216 1.166 1.192 1.192 0 0 1 1.216-1.166z" class="cls-8" data-name="Path 17" transform="translate(-961.391 -1952.448)"/>
            <path id="Path_18" d="M1090.8 955.59h6.157a.683.683 0 0 1 .681.681v1.564a.683.683 0 0 1-.681.681h-6.157a.683.683 0 0 1-.681-.681v-1.564a.683.683 0 0 1 .681-.681z" class="cls-9" data-name="Path 18" transform="translate(-1081.615 -948.135)"/>
            <path id="Path_19" d="M1090.813 955.59h6.094a.7.7 0 0 1 .713.681v.144a.821.821 0 0 1-.23-.182 2.271 2.271 0 0 0-.261-.25c-.081-.058-.146-.067-1.2-.067s-3.1.01-4.156.021-1.135.025-1.193.087-.1.174-.119.5a8.524 8.524 0 0 0 .021 1.189.7.7 0 0 0 .165.457c.06.074.112.149.086.219a.177.177 0 0 1-.119.1.689.689 0 0 1-.513-.653v-1.564a.7.7 0 0 1 .712-.682z" class="cls-2" data-name="Path 19" transform="translate(-1081.596 -948.135)"/>
            <path id="Path_20" d="M1063.944 929.71h6.094a.942.942 0 0 1 .652.259.862.862 0 0 1 .268.619v1.564a.861.861 0 0 1-.271.624.944.944 0 0 1-.653.259h-6.094a.944.944 0 0 1-.652-.259.861.861 0 0 1-.268-.619v-1.564a.862.862 0 0 1 .272-.623.944.944 0 0 1 .652-.26zm6.094.4h-6.094a.512.512 0 0 0-.354.141.466.466 0 0 0-.147.338v1.564a.469.469 0 0 0 .147.338.515.515 0 0 0 .354.14h6.094a.512.512 0 0 0 .354-.141.468.468 0 0 0 .147-.338v-1.564a.469.469 0 0 0-.147-.338.514.514 0 0 0-.354-.14z" class="cls-3" data-name="Path 20" transform="translate(-1054.727 -922.457)"/>
            <path id="Path_21" d="M189.988 1271.68a1.783 1.783 0 0 1 1.272.534 1.828 1.828 0 0 1 0 2.565 1.782 1.782 0 0 1-2.544 0 1.828 1.828 0 0 1 0-2.565 1.784 1.784 0 0 1 1.272-.534zm.913.887a1.282 1.282 0 0 0-1.826 0 1.328 1.328 0 0 0 0 1.859 1.282 1.282 0 0 0 1.826 0 1.328 1.328 0 0 0 0-1.859z" class="cls-4" data-name="Path 21" transform="translate(-186.722 -1261.759)"/>
            <path id="Path_22" d="M2564.358 1153.07a1.783 1.783 0 0 1 1.272.534 1.828 1.828 0 0 1 0 2.565 1.782 1.782 0 0 1-2.544 0 1.828 1.828 0 0 1 0-2.565 1.783 1.783 0 0 1 1.272-.534zm.913.887a1.282 1.282 0 0 0-1.826 0 1.328 1.328 0 0 0 0 1.86 1.282 1.282 0 0 0 1.826 0 1.328 1.328 0 0 0 0-1.86z" class="cls-4" data-name="Path 22" transform="translate(-2542.568 -1144.074)"/>
            <path id="Path_23" d="M2033.777 303.65a1.783 1.783 0 0 1 1.272.534 1.828 1.828 0 0 1 0 2.565 1.782 1.782 0 0 1-2.544 0 1.828 1.828 0 0 1 0-2.565 1.784 1.784 0 0 1 1.272-.534zm.913.887a1.282 1.282 0 0 0-1.827 0 1.328 1.328 0 0 0 0 1.859 1.282 1.282 0 0 0 1.827 0 1.328 1.328 0 0 0 0-1.859z" class="cls-4" data-name="Path 23" transform="translate(-2016.127 -301.281)"/>
            <path id="Path_24" d="M1216.63 841.48h5.487v3.248a1.012 1.012 0 0 1-1.009 1.009h-3.469a1.012 1.012 0 0 1-1.009-1.009z" class="cls-1" data-name="Path 24" transform="translate(-1207.138 -834.915)"/>
            <path id="Path_25" d="M1217.909 932.992h-.27a1.012 1.012 0 0 1-1.009-1.009v-2.563h.321c.034 0 .034 0 .031.233s-.008.7-.01 1.136 0 .848.005 1.1a1.07 1.07 0 0 0 .081.476.682.682 0 0 0 .3.33 2.746 2.746 0 0 0 .444.1.139.139 0 0 1 .11.2z" class="cls-2" data-name="Path 25" transform="translate(-1207.139 -922.169)"/>
            <path id="Path_26" d="M1203 929.71v2.56a1.157 1.157 0 0 1-.341.819 1.158 1.158 0 0 1-.819.341h-3.469a1.163 1.163 0 0 1-1.16-1.161v-2.56h.3v2.56a.861.861 0 0 0 .858.858h3.469a.854.854 0 0 0 .606-.252.855.855 0 0 0 .251-.606v-2.56h.3z" class="cls-3" data-name="Path 26" transform="translate(-1187.87 -922.457)"/>
            <path id="Path_27" d="M473.417 1714.32a1.834 1.834 0 1 1-1.816 1.834 1.825 1.825 0 0 1 1.816-1.834z" class="cls-1" data-name="Path 27" transform="translate(-467.921 -1700.945)"/>
            <path id="Path_28" d="M782.26 1707.28a1.966 1.966 0 0 1 .784.486 1.992 1.992 0 0 1-.374 3.1 11.6 11.6 0 0 1-.087-.3 1.688 1.688 0 0 0-.319-2.962l-.004-.324z" class="cls-3" data-name="Path 28" transform="translate(-776.157 -1693.96)"/>
            <path id="Path_29" d="M2230.146 1719.15a1.834 1.834 0 1 1-1.816 1.834 1.825 1.825 0 0 1 1.816-1.834z" class="cls-1" data-name="Path 29" transform="translate(-2210.945 -1705.738)"/>
            <path id="Path_30" d="M2209.967 1711.9a1.99 1.99 0 0 1 .426-3.668 1.525 1.525 0 0 1 .018.322 1.8 1.8 0 0 0-.69.407 1.7 1.7 0 0 0 0 2.38 2.481 2.481 0 0 0 .372.293c-.016.105-.102.158-.126.266z" class="cls-3" data-name="Path 30" transform="translate(-2191.697 -1694.903)"/>
            <path id="Path_31" d="M2104.806 1027.92a1.834 1.834 0 1 1-1.816 1.834 1.825 1.825 0 0 1 1.816-1.834z" class="cls-1" data-name="Path 31" transform="translate(-2086.583 -1019.901)"/>
            <path id="Path_32" d="M2086.014 1169.839a1.956 1.956 0 0 1-1.848-.528 2 2 0 0 1-.432-2.15c.1.021.2.044.3.073a1.7 1.7 0 0 0 .348 1.865 1.656 1.656 0 0 0 1.587.441c.012.1.029.192.047.3z" class="cls-3" data-name="Path 32" transform="translate(-2067.335 -1158.054)"/>
            <path id="Path_33" d="M596.8 1019.84a1.681 1.681 0 1 1-1.665 1.681 1.673 1.673 0 0 1 1.665-1.681z" class="cls-1" data-name="Path 33" transform="translate(-590.487 -1011.884)"/>
            <path id="Path_34" d="M796.994 1181.85a1.846 1.846 0 0 1-.485 1.712 1.8 1.8 0 0 1-1.284.537h-.1l.05-.187a.214.214 0 0 1 .053-.112 1.5 1.5 0 0 0 1.07-.447 1.547 1.547 0 0 0 .411-1.4c.076-.032.149-.055.209-.075l.078-.026z" class="cls-3" data-name="Path 34" transform="translate(-788.917 -1172.63)"/>
            <path id="Path_35" d="M1418.86 2128.79h2.989a2.05 2.05 0 0 1-2.044 2.044h-.945z" class="cls-2" data-name="Path 35" transform="translate(-1407.791 -2112.182)"/>
            <path id="Path_36" d="M1393.182 2102.92h2.989a.2.2 0 0 1 .2.2 2.239 2.239 0 0 1-.66 1.586 2.241 2.241 0 0 1-1.585.659h-.945a.2.2 0 0 1-.2-.2v-2.044a.2.2 0 0 1 .201-.201zm2.776.4h-2.574v1.641h.743a1.837 1.837 0 0 0 1.3-.541 1.838 1.838 0 0 0 .529-1.1z" class="cls-3" data-name="Path 36" transform="translate(-1382.113 -2086.514)"/>
            <path id="Path_37" d="M1398.388 1777.44a.182.182 0 1 1-.2.182.19.19 0 0 1 .2-.182z" class="cls-2" data-name="Path 37" transform="translate(-1387.282 -1763.573)"/>
        </g>
        <text id="Careers" class="cls-10" transform="translate(99.715 14.99)">
            <tspan x="0" y="0">Careers</tspan>
        </text>
        <path id="Path_38" d="M3845.172 420.657v-6.564a4.868 4.868 0 0 1 1.563-.316c1.088 0 1.229.79 1.229 2.37v4.511h2.352v-4.546c0-.685-.07-2-.07-2a5.983 5.983 0 0 1 1.632-.333c1.053 0 1.229.86 1.229 2.194v4.686h2.352V415.9c0-2.826-.7-4.23-3.089-4.23a7.917 7.917 0 0 0-2.949.825 2.783 2.783 0 0 0-2.194-.825 5.386 5.386 0 0 0-2.071.7v-.492h-2.334v8.776zm18.65-6.038c0-2.054-.913-2.949-3.194-2.949a15.989 15.989 0 0 0-3.563.509l.07 1.632s2.141-.14 3.3-.14c.7 0 1.036.193 1.036.948v.544l-1.878.14c-1.931.14-3.072.7-3.072 2.685 0 1.861.878 2.879 2.721 2.879a6.76 6.76 0 0 0 2.581-.614 3.9 3.9 0 0 0 2.51.614l.07-1.773c-.474-.088-.544-.3-.579-.825v-3.651zm-2.352 2.176v1.878a7.5 7.5 0 0 1-1.72.281c-.632 0-.86-.421-.86-1.036 0-.632.369-.93.983-.983l1.6-.14zm6.5 3.861v-6.564a4.868 4.868 0 0 1 1.563-.316c1.088 0 1.229.79 1.229 2.37v4.511h2.352v-4.546c0-.685-.07-2-.07-2a5.983 5.983 0 0 1 1.632-.333c1.053 0 1.229.86 1.229 2.194v4.686h2.352V415.9c0-2.826-.7-4.23-3.089-4.23a7.921 7.921 0 0 0-2.949.825 2.783 2.783 0 0 0-2.194-.825 5.383 5.383 0 0 0-2.071.7v-.492h-2.334v8.776zm11.928 0h2.352v-8.776h-2.35zm0-9.9h2.352v-2.386h-2.35zm6.434 9.9v-3.265l.966-.158 1.772 3.423h2.65l-2.4-4.616 2.282-4.16h-2.633l-1.737 3.317-.9.158v-6.985h-2.352v12.286h2.352zm9.668-8.986c-3.054 0-4.037 1.878-4.037 4.581s.983 4.616 4.037 4.616 4.037-1.913 4.037-4.616-.982-4.581-4.037-4.581zm0 7.2c-1.3 0-1.649-.913-1.649-2.615s.351-2.58 1.649-2.58 1.65.878 1.65 2.58-.35 2.611-1.65 2.611zm11.647-6.74a22.541 22.541 0 0 0-3.405-.439c-1.843 0-3.388.825-3.388 2.861 0 1.931 1 2.387 2.9 2.7 1.615.263 1.808.439 1.808.825 0 .456-.3.685-1.422.685-.9 0-3.071-.281-3.071-.281l-.07 1.966a21.963 21.963 0 0 0 3.37.421c2.194 0 3.528-.79 3.528-2.843 0-1.773-.72-2.37-2.756-2.738-1.615-.3-1.948-.386-1.948-.79 0-.474.211-.7 1.229-.7s3.195.281 3.195.281l.035-1.948z" class="cls-11" data-name="Path 38" transform="translate(-3812.84 -405.194)"/>
    </g>
</svg>
